# xmcd
#
# Track frame offsets: 
#        150
#        18104
#        36950
#        51758
#        73620
#        90720
#        106123
#        124100
#        141434
#        157615
#        175709
#
# Disc length: 2560 seconds
#
# Revision: 0
# Processed by: cddbd v1.5.2PL0 Copyright (c) Steve Scherf et al.
# Submitted via: ExactAudioCopyFreeDBPlugin 1.0
#
DISCID=8409fe0b
DTITLE=US Rails - Mile By Mile
DYEAR=2020
DGENRE=Country
TTITLE0=Take You Home
TTITLE1=Mile By Mile
TTITLE2=Trash Truck
TTITLE3=Water In The Well
TTITLE4=What You Mean To Me
TTITLE5=Hard Headed Woman
TTITLE6=Easy On My Soul
TTITLE7=Tombstones and Tumbleweeds
TTITLE8=See The Dream
TTITLE9=Fooling Around
TTITLE10=Slow Dance
EXTD=
EXTT0=
EXTT1=
EXTT2=
EXTT3=
EXTT4=
EXTT5=
EXTT6=
EXTT7=
EXTT8=
EXTT9=
EXTT10=
PLAYORDER=
